<svg width="65" height="65" viewBox="0 0 65 65" fill="none" xmlns="http://www.w3.org/2000/svg">
<g id="ic:outline-emoji-events">
<path id="Vector" d="M51.4583 13.5417H46.0417V8.125H18.9583V13.5417H13.5417C10.5625 13.5417 8.125 15.9792 8.125 18.9583V21.6667C8.125 28.5729 13.325 34.2062 20.0146 35.0458C20.8711 37.0753 22.2089 38.8658 23.9123 40.2625C25.6158 41.6593 27.6337 42.6203 29.7917 43.0625V51.4583H18.9583V56.875H46.0417V51.4583H35.2083V43.0625C37.3663 42.6203 39.3842 41.6593 41.0877 40.2625C42.7911 38.8658 44.1289 37.0753 44.9854 35.0458C51.675 34.2062 56.875 28.5729 56.875 21.6667V18.9583C56.875 15.9792 54.4375 13.5417 51.4583 13.5417ZM13.5417 21.6667V18.9583H18.9583V29.3042C15.8167 28.1667 13.5417 25.1875 13.5417 21.6667ZM32.5 37.9167C28.0312 37.9167 24.375 34.2604 24.375 29.7917V13.5417H40.625V29.7917C40.625 34.2604 36.9688 37.9167 32.5 37.9167ZM51.4583 21.6667C51.4583 25.1875 49.1833 28.1667 46.0417 29.3042V18.9583H51.4583V21.6667Z" fill="#EF443B"/>
</g>
</svg>
